<svg xmlns="http://www.w3.org/2000/svg" viewBox="0 0 512 512" role="img" aria-label="Global Travel Intercâmbios">
  <defs>
    <linearGradient id="goldGrad" x1="0" y1="0" x2="1" y2="1">
      <stop offset="0%" stop-color="#E4C78A"/>
      <stop offset="100%" stop-color="#C8A35F"/>
    </linearGradient>
    <filter id="shadow" x="-20%" y="-20%" width="140%" height="140%">
      <feDropShadow dx="0" dy="18" stdDeviation="18" flood-color="#000000" flood-opacity="0.18"/>
    </filter>
  </defs>
  <rect width="512" height="512" rx="120" fill="none"/>
  <g filter="url(#shadow)">
    <circle cx="248" cy="256" r="126" fill="url(#goldGrad)"/>
    <circle cx="248" cy="256" r="118" fill="none" stroke="#0F2342" stroke-opacity="0.18" stroke-width="6"/>
    <path d="M192 184c23-26 58-42 94-40-10 18-7 34 9 47 19 17 23 37 15 58-7 18-4 34 10 46 13 12 26 19 39 19-27 35-80 58-133 54-9-20-27-32-53-35-20-3-34-15-42-35-9-21-5-44 9-67 14-23 16-39 7-47-5-5-4-5 45 0z" fill="#0F2342"/>
    <path d="M148 262c17 14 32 16 47 11M256 146c3 19 1 36-6 51M330 197c14 8 27 22 38 42M314 330c-14-4-30-3-49 4M204 345c8-17 9-32 3-47" fill="none" stroke="#F6E8C6" stroke-opacity="0.48" stroke-width="8" stroke-linecap="round"/>
    <ellipse cx="270" cy="212" rx="185" ry="70" transform="rotate(-26 270 212)" fill="none" stroke="url(#goldGrad)" stroke-width="16"/>
    <ellipse cx="270" cy="212" rx="185" ry="70" transform="rotate(-26 270 212)" fill="none" stroke="#0F2342" stroke-opacity="0.35" stroke-width="5"/>
    <path d="M393 108l28-6 49 49-6 28-29-20-10 9 7 23-17 16-15-20-14 3 7-19-15-13 19-8z" fill="#0F2342"/>
    <path d="M422 143l25 15" stroke="#E4C78A" stroke-width="7" stroke-linecap="round"/>
  </g>
</svg>