<svg xmlns="http://www.w3.org/2000/svg" viewBox="0 0 512 512" role="img" aria-labelledby="title desc">
  <title id="title">Global Travel Intercâmbios Logo</title>
  <desc id="desc">Monograma GT com bússola em dourado sobre fundo azul-marinho.</desc>
  <defs>
    <linearGradient id="gold" x1="0" y1="0" x2="1" y2="1">
      <stop offset="0%" stop-color="#f7e4a6"/>
      <stop offset="45%" stop-color="#d7b267"/>
      <stop offset="100%" stop-color="#9b6b22"/>
    </linearGradient>
    <radialGradient id="bg" cx="50%" cy="35%" r="75%">
      <stop offset="0%" stop-color="#15325a"/>
      <stop offset="100%" stop-color="#08172a"/>
    </radialGradient>
    <filter id="shadow" x="-20%" y="-20%" width="140%" height="140%">
      <feDropShadow dx="0" dy="10" stdDeviation="10" flood-color="#000" flood-opacity="0.25"/>
    </filter>
  </defs>

  <rect width="512" height="512" rx="112" fill="url(#bg)"/>
  <g filter="url(#shadow)">
    <circle cx="256" cy="256" r="166" fill="none" stroke="url(#gold)" stroke-width="10"/>
    <circle cx="256" cy="256" r="138" fill="none" stroke="url(#gold)" stroke-opacity="0.45" stroke-width="2" stroke-dasharray="10 12"/>

    <path d="M256 86l18 52 52 18-52 18-18 52-18-52-52-18 52-18z" fill="url(#gold)" opacity="0.9"/>
    <path d="M256 286l20 56 56 20-56 20-20 56-20-56-56-20 56-20z" fill="url(#gold)" opacity="0.9" transform="rotate(180 256 362)"/>

    <path d="M170 150h98c44 0 72 24 72 62 0 37-30 60-76 60h-39v60h-55V150zm55 43v38h35c17 0 27-7 27-19 0-12-10-19-27-19h-35z" fill="#f8fafc"/>
    <path d="M164 358l56-102h42l56 102h-48l-8-17h-42l-8 17h-48zm71-49h23l-12-26-11 26z" fill="#f8fafc" opacity="0.95"/>
    <path d="M355 173l-41 56 30 40h-32l-14-19-14 19h-32l30-40-41-56h34l23 33 23-33z" fill="#f8fafc" opacity="0.92"/>
  </g>
</svg>
