<svg xmlns="http://www.w3.org/2000/svg" viewBox="0 0 980 190" role="img" aria-label="Global Travel Intercâmbios">
  <defs>
    <linearGradient id="gtGoldFullV6" x1="0" y1="0" x2="1" y2="1">
      <stop offset="0%" stop-color="#F7E1AF"/>
      <stop offset="55%" stop-color="#E2C27A"/>
      <stop offset="100%" stop-color="#C89A46"/>
    </linearGradient>
    <filter id="logoGlowV6" x="-25%" y="-25%" width="150%" height="150%">
      <feDropShadow dx="0" dy="10" stdDeviation="14" flood-color="#D7B269" flood-opacity="0.18"/>
    </filter>
  </defs>
  <g transform="translate(14,18)" filter="url(#logoGlowV6)">
    <circle cx="74" cy="72" r="44" fill="rgba(255,255,255,0.02)" stroke="url(#gtGoldFullV6)" stroke-width="5.5"/>
    <path d="M44 56c10-13 28-21 44-20 7 .3 14 2 21 5" fill="none" stroke="#F6DEAA" stroke-width="5" stroke-linecap="round"/>
    <path d="M39 90c18 8 39 9 58 4 15-4 29-12 42-25" fill="none" stroke="url(#gtGoldFullV6)" stroke-width="6" stroke-linecap="round"/>
    <path d="M66 34c3 12 3 23 1 36" fill="none" stroke="#D7B269" stroke-width="3.6" stroke-linecap="round" opacity=".88"/>
    <path d="M50 48c8 5 14 13 18 23" fill="none" stroke="#D7B269" stroke-width="3.6" stroke-linecap="round" opacity=".88"/>
    <path d="M111 34l18-5 11 11-5 16-6-6-8 5 2-10-10-4z" fill="url(#gtGoldFullV6)"/>
    <path d="M26 76c4-21 22-39 44-46" fill="none" stroke="#FFF7E6" stroke-opacity=".28" stroke-width="2.2"/>
  </g>
  <g transform="translate(180,42)">
    <text x="0" y="62" fill="#FBFDFF" font-family="Cormorant Garamond, Georgia, serif" font-size="76" font-weight="700" letter-spacing="1.3">GLOBAL TRAVEL</text>
    <text x="4" y="114" fill="url(#gtGoldFullV6)" font-family="Outfit, Arial, sans-serif" font-size="30" font-weight="600" letter-spacing="8">INTERCÂMBIOS</text>
  </g>
</svg>
