<svg xmlns="http://www.w3.org/2000/svg" viewBox="0 0 120 120" role="img" aria-label="Global Travel">
  <defs>
    <linearGradient id="gtGoldMarkV6" x1="0" y1="0" x2="1" y2="1">
      <stop offset="0%" stop-color="#F7E1AF"/>
      <stop offset="55%" stop-color="#E2C27A"/>
      <stop offset="100%" stop-color="#C89A46"/>
    </linearGradient>
  </defs>
  <circle cx="56" cy="60" r="28" fill="none" stroke="url(#gtGoldMarkV6)" stroke-width="5"/>
  <path d="M34 59c7-10 18-16 30-17 10 0 19 2 27 6" fill="none" stroke="#F7E1AF" stroke-width="4.4" stroke-linecap="round"/>
  <path d="M30 78c15 6 31 7 47 3 13-3 25-11 36-23" fill="none" stroke="url(#gtGoldMarkV6)" stroke-width="5" stroke-linecap="round"/>
  <path d="M84 30l14-4 9 9-4 13-5-5-7 4 2-8-9-4z" fill="url(#gtGoldMarkV6)"/>
  <path d="M48 42c7 4 12 11 15 20" fill="none" stroke="#D7B269" stroke-width="3.2" stroke-linecap="round" opacity=".92"/>
  <path d="M60 34c1 10 1 19 0 29" fill="none" stroke="#D7B269" stroke-width="3.2" stroke-linecap="round" opacity=".92"/>
</svg>
