<svg xmlns="http://www.w3.org/2000/svg" viewBox="0 0 64 64">
  <defs>
    <linearGradient id="g" x1="0" y1="0" x2="1" y2="1">
      <stop offset="0%" stop-color="#FFF4D8"/>
      <stop offset="45%" stop-color="#E7C983"/>
      <stop offset="100%" stop-color="#C99A43"/>
    </linearGradient>
  </defs>
  <rect width="64" height="64" rx="14" fill="#07111C"/>
  <circle cx="29" cy="33" r="14" fill="none" stroke="url(#g)" stroke-width="2.5"/>
  <path d="M20 27c3-2 6-3 10-3 2 0 5 1 7 2-1 2-1 3-1 4 0 2 0 3 1 5-3 0-6 0-8 1-3 0-5 2-8 3-1-2-1-5 0-8 0-2 0-3 1-4z" fill="#fff"/>
  <path d="M32 23c4 1 7 3 9 6 0 3-2 5-4 7-3 2-5 3-8 4 1-3 1-5 0-7-1-4-3-7-5-8 2-1 5-2 8-2z" fill="#fff" opacity=".95"/>
  <path d="M15 36c6 6 13 9 20 10 8 1 15-2 22-7" fill="none" stroke="url(#g)" stroke-width="2.7" stroke-linecap="round"/>
  <path d="M11 36c6-10 17-17 29-17 7 0 14 3 20 7" fill="none" stroke="#fff" stroke-width="2.5" stroke-linecap="round"/>
  <path d="M51 10l8 3-4 2 3 5-5-2-3 5-1-5-5-1 5-3 2-4z" fill="url(#g)"/>
</svg>
