<svg xmlns="http://www.w3.org/2000/svg" viewBox="0 0 120 120" role="img" aria-label="Global Travel">
  <defs>
    <linearGradient id="gtGoldMarkV7" x1="0" y1="0" x2="1" y2="1">
      <stop offset="0%" stop-color="#FFF4D8"/>
      <stop offset="45%" stop-color="#E7C983"/>
      <stop offset="100%" stop-color="#C99A43"/>
    </linearGradient>
  </defs>
  <g transform="translate(2,2)">
    <circle cx="56" cy="58" r="27.5" fill="rgba(255,255,255,0.04)" stroke="url(#gtGoldMarkV7)" stroke-width="4.2"/>
    <path d="M38 47c6-4 12-6 19-6 5 0 9 1 14 3-2 2-3 5-3 8 0 3 1 5 2 8-5-1-10-1-15 0-5 1-10 3-15 5-1-5-1-10 1-14 1-2 2-3 3-4z" fill="#FFFFFF"/>
    <path d="M63 39c7 1 12 5 16 10-1 4-4 8-7 10-4 4-8 5-13 6 1-4 1-8-1-12-1-5-4-9-8-12 4-2 8-2 13-2z" fill="#FFFFFF" opacity=".94"/>
    <path d="M49 67c6-1 11 0 17 2 4 2 8 4 11 8-6 3-12 5-18 5-5 0-10-1-16-3 1-3 3-6 6-8 0-2 0-3 0-4z" fill="#FFFFFF" opacity=".96"/>
    <path d="M30 65c10 10 23 15 37 16 14 1 27-3 39-12" fill="none" stroke="url(#gtGoldMarkV7)" stroke-width="4.6" stroke-linecap="round"/>
    <path d="M24 66c11-18 31-30 52-30 12 0 25 4 36 12" fill="none" stroke="#FFFFFF" stroke-width="4.2" stroke-linecap="round" opacity=".95"/>
    <path d="M95 18l14 4-7 5 5 9-9-3-5 8-2-10-8-2 8-4 4-7z" fill="url(#gtGoldMarkV7)"/>
  </g>
</svg>
